<svg viewBox="0 0 16 16" xmlns="http://www.w3.org/2000/svg">
  <path d="M6 3c0 .7403-.4022 1.3866-1 1.7324v3.2672C5.8357 7.3719 6.8744 7 8 7c1.4213 0 2.6118-.9884 2.9215-2.3154C10.3673 4.329 10 3.7074 10 3c0-1.1046.8954-2 2-2s2 .8954 2 2c0 .764-.4284 1.428-1.0581 1.7648C12.5738 7.1632 10.5014 9 8 9c-1.4213 0-2.6118.9884-2.9215 2.3154C5.6327 11.671 6 12.2926 6 13c0 1.1046-.8954 2-2 2s-2-.8954-2-2c0-.7403.4022-1.3866 1-1.7324V4.7324C2.4022 4.3866 2 3.7403 2 3c0-1.1046.8954-2 2-2s2 .8954 2 2Z" fill="#000"/>
</svg>
